<mxfile host="app.diagrams.net" modified="2023-06-18T14:44:14.619Z" agent="Mozilla/5.0 (Windows NT 10.0; Win64; x64) AppleWebKit/537.36 (KHTML, like Gecko) Chrome/113.0.0.0 Safari/537.36 OPR/99.0.0.0" etag="r4PoPhpzMlpjlXFpkSzj" version="21.3.8" type="device">
  <diagram id="C5RBs43oDa-KdzZeNtuy" name="Page-1">
    <mxGraphModel dx="1028" dy="684" grid="1" gridSize="10" guides="1" tooltips="1" connect="1" arrows="1" fold="1" page="1" pageScale="1" pageWidth="827" pageHeight="1169" math="0" shadow="0">
      <root>
        <mxCell id="WIyWlLk6GJQsqaUBKTNV-0" />
        <mxCell id="WIyWlLk6GJQsqaUBKTNV-1" parent="WIyWlLk6GJQsqaUBKTNV-0" />
        <mxCell id="zkfFHV4jXpPFQw0GAbJ--6" value="Inventory" style="swimlane;fontStyle=2;align=center;verticalAlign=top;childLayout=stackLayout;horizontal=1;startSize=26;horizontalStack=0;resizeParent=1;resizeLast=0;collapsible=1;marginBottom=0;rounded=0;shadow=0;strokeWidth=1;" parent="WIyWlLk6GJQsqaUBKTNV-1" vertex="1">
          <mxGeometry x="560" y="116" width="210" height="164" as="geometry">
            <mxRectangle x="130" y="380" width="160" height="26" as="alternateBounds" />
          </mxGeometry>
        </mxCell>
        <mxCell id="zkfFHV4jXpPFQw0GAbJ--7" value="+ pallets : StorageElement" style="text;align=left;verticalAlign=top;spacingLeft=4;spacingRight=4;overflow=hidden;rotatable=0;points=[[0,0.5],[1,0.5]];portConstraint=eastwest;" parent="zkfFHV4jXpPFQw0GAbJ--6" vertex="1">
          <mxGeometry y="26" width="210" height="26" as="geometry" />
        </mxCell>
        <mxCell id="-fR6I9Zb2AYrxej_xYAv-124" value="" style="line;strokeWidth=1;fillColor=none;align=left;verticalAlign=middle;spacingTop=-1;spacingLeft=3;spacingRight=3;rotatable=0;labelPosition=right;points=[];portConstraint=eastwest;strokeColor=inherit;" vertex="1" parent="zkfFHV4jXpPFQw0GAbJ--6">
          <mxGeometry y="52" width="210" height="8" as="geometry" />
        </mxCell>
        <mxCell id="-fR6I9Zb2AYrxej_xYAv-125" value="+ Inventory(app, InventoryController)" style="text;align=left;verticalAlign=top;spacingLeft=4;spacingRight=4;overflow=hidden;rotatable=0;points=[[0,0.5],[1,0.5]];portConstraint=eastwest;" vertex="1" parent="zkfFHV4jXpPFQw0GAbJ--6">
          <mxGeometry y="60" width="210" height="26" as="geometry" />
        </mxCell>
        <mxCell id="-fR6I9Zb2AYrxej_xYAv-126" value="+ initializeStorageElements()" style="text;align=left;verticalAlign=top;spacingLeft=4;spacingRight=4;overflow=hidden;rotatable=0;points=[[0,0.5],[1,0.5]];portConstraint=eastwest;" vertex="1" parent="zkfFHV4jXpPFQw0GAbJ--6">
          <mxGeometry y="86" width="210" height="26" as="geometry" />
        </mxCell>
        <mxCell id="-fR6I9Zb2AYrxej_xYAv-127" value="+ getStoragePallet(row, col)" style="text;align=left;verticalAlign=top;spacingLeft=4;spacingRight=4;overflow=hidden;rotatable=0;points=[[0,0.5],[1,0.5]];portConstraint=eastwest;" vertex="1" parent="zkfFHV4jXpPFQw0GAbJ--6">
          <mxGeometry y="112" width="210" height="26" as="geometry" />
        </mxCell>
        <mxCell id="-fR6I9Zb2AYrxej_xYAv-128" value="+ setStoragePallet(row, col, Pallet)" style="text;align=left;verticalAlign=top;spacingLeft=4;spacingRight=4;overflow=hidden;rotatable=0;points=[[0,0.5],[1,0.5]];portConstraint=eastwest;" vertex="1" parent="zkfFHV4jXpPFQw0GAbJ--6">
          <mxGeometry y="138" width="210" height="26" as="geometry" />
        </mxCell>
        <mxCell id="-fR6I9Zb2AYrxej_xYAv-95" style="edgeStyle=orthogonalEdgeStyle;rounded=0;orthogonalLoop=1;jettySize=auto;html=1;endArrow=none;endFill=0;" edge="1" parent="WIyWlLk6GJQsqaUBKTNV-1" source="zkfFHV4jXpPFQw0GAbJ--17" target="-fR6I9Zb2AYrxej_xYAv-86">
          <mxGeometry relative="1" as="geometry" />
        </mxCell>
        <mxCell id="-fR6I9Zb2AYrxej_xYAv-96" value="0..1" style="edgeLabel;html=1;align=center;verticalAlign=middle;resizable=0;points=[];" vertex="1" connectable="0" parent="-fR6I9Zb2AYrxej_xYAv-95">
          <mxGeometry x="-0.7555" y="-1" relative="1" as="geometry">
            <mxPoint x="19" y="-11" as="offset" />
          </mxGeometry>
        </mxCell>
        <mxCell id="-fR6I9Zb2AYrxej_xYAv-97" value="invController" style="edgeLabel;html=1;align=center;verticalAlign=middle;resizable=0;points=[];" vertex="1" connectable="0" parent="-fR6I9Zb2AYrxej_xYAv-95">
          <mxGeometry x="-0.7694" relative="1" as="geometry">
            <mxPoint x="-40" y="-11" as="offset" />
          </mxGeometry>
        </mxCell>
        <mxCell id="-fR6I9Zb2AYrxej_xYAv-98" value="0..1" style="edgeLabel;html=1;align=center;verticalAlign=middle;resizable=0;points=[];" vertex="1" connectable="0" parent="-fR6I9Zb2AYrxej_xYAv-95">
          <mxGeometry x="0.7176" relative="1" as="geometry">
            <mxPoint x="20" y="4" as="offset" />
          </mxGeometry>
        </mxCell>
        <mxCell id="-fR6I9Zb2AYrxej_xYAv-99" value="workbench" style="edgeLabel;html=1;align=center;verticalAlign=middle;resizable=0;points=[];" vertex="1" connectable="0" parent="-fR6I9Zb2AYrxej_xYAv-95">
          <mxGeometry x="0.3156" y="-1" relative="1" as="geometry">
            <mxPoint x="-41" y="-11" as="offset" />
          </mxGeometry>
        </mxCell>
        <mxCell id="zkfFHV4jXpPFQw0GAbJ--17" value="Workbench" style="swimlane;fontStyle=2;align=center;verticalAlign=top;childLayout=stackLayout;horizontal=1;startSize=26;horizontalStack=0;resizeParent=1;resizeLast=0;collapsible=1;marginBottom=0;rounded=0;shadow=0;strokeWidth=1;" parent="WIyWlLk6GJQsqaUBKTNV-1" vertex="1">
          <mxGeometry x="350" y="200" width="160" height="164" as="geometry">
            <mxRectangle x="550" y="140" width="160" height="26" as="alternateBounds" />
          </mxGeometry>
        </mxCell>
        <mxCell id="zkfFHV4jXpPFQw0GAbJ--18" value="+ k1 : Pallet" style="text;align=left;verticalAlign=top;spacingLeft=4;spacingRight=4;overflow=hidden;rotatable=0;points=[[0,0.5],[1,0.5]];portConstraint=eastwest;" parent="zkfFHV4jXpPFQw0GAbJ--17" vertex="1">
          <mxGeometry y="26" width="160" height="26" as="geometry" />
        </mxCell>
        <mxCell id="zkfFHV4jXpPFQw0GAbJ--19" value="+ k2 : Pallet" style="text;align=left;verticalAlign=top;spacingLeft=4;spacingRight=4;overflow=hidden;rotatable=0;points=[[0,0.5],[1,0.5]];portConstraint=eastwest;rounded=0;shadow=0;html=0;" parent="zkfFHV4jXpPFQw0GAbJ--17" vertex="1">
          <mxGeometry y="52" width="160" height="26" as="geometry" />
        </mxCell>
        <mxCell id="-fR6I9Zb2AYrxej_xYAv-129" value="" style="line;strokeWidth=1;fillColor=none;align=left;verticalAlign=middle;spacingTop=-1;spacingLeft=3;spacingRight=3;rotatable=0;labelPosition=right;points=[];portConstraint=eastwest;strokeColor=inherit;" vertex="1" parent="zkfFHV4jXpPFQw0GAbJ--17">
          <mxGeometry y="78" width="160" height="8" as="geometry" />
        </mxCell>
        <mxCell id="-fR6I9Zb2AYrxej_xYAv-130" value="+ Workbench()" style="text;align=left;verticalAlign=top;spacingLeft=4;spacingRight=4;overflow=hidden;rotatable=0;points=[[0,0.5],[1,0.5]];portConstraint=eastwest;rounded=0;shadow=0;html=0;" vertex="1" parent="zkfFHV4jXpPFQw0GAbJ--17">
          <mxGeometry y="86" width="160" height="26" as="geometry" />
        </mxCell>
        <mxCell id="-fR6I9Zb2AYrxej_xYAv-132" value="+ SetPallet(Pallet, location)" style="text;align=left;verticalAlign=top;spacingLeft=4;spacingRight=4;overflow=hidden;rotatable=0;points=[[0,0.5],[1,0.5]];portConstraint=eastwest;rounded=0;shadow=0;html=0;" vertex="1" parent="zkfFHV4jXpPFQw0GAbJ--17">
          <mxGeometry y="112" width="160" height="26" as="geometry" />
        </mxCell>
        <mxCell id="-fR6I9Zb2AYrxej_xYAv-133" value="+ GetPallet(location)" style="text;align=left;verticalAlign=top;spacingLeft=4;spacingRight=4;overflow=hidden;rotatable=0;points=[[0,0.5],[1,0.5]];portConstraint=eastwest;rounded=0;shadow=0;html=0;" vertex="1" parent="zkfFHV4jXpPFQw0GAbJ--17">
          <mxGeometry y="138" width="160" height="26" as="geometry" />
        </mxCell>
        <mxCell id="-fR6I9Zb2AYrxej_xYAv-67" style="edgeStyle=orthogonalEdgeStyle;rounded=0;orthogonalLoop=1;jettySize=auto;html=1;endArrow=none;endFill=0;" edge="1" parent="WIyWlLk6GJQsqaUBKTNV-1" source="-fR6I9Zb2AYrxej_xYAv-4" target="zkfFHV4jXpPFQw0GAbJ--17">
          <mxGeometry relative="1" as="geometry" />
        </mxCell>
        <mxCell id="-fR6I9Zb2AYrxej_xYAv-68" value="0..1" style="edgeLabel;html=1;align=center;verticalAlign=middle;resizable=0;points=[];" vertex="1" connectable="0" parent="-fR6I9Zb2AYrxej_xYAv-67">
          <mxGeometry x="0.8069" y="2" relative="1" as="geometry">
            <mxPoint x="22" y="5" as="offset" />
          </mxGeometry>
        </mxCell>
        <mxCell id="-fR6I9Zb2AYrxej_xYAv-69" value="location" style="edgeLabel;html=1;align=center;verticalAlign=middle;resizable=0;points=[];" vertex="1" connectable="0" parent="-fR6I9Zb2AYrxej_xYAv-67">
          <mxGeometry x="0.7916" y="1" relative="1" as="geometry">
            <mxPoint x="-29" y="6" as="offset" />
          </mxGeometry>
        </mxCell>
        <mxCell id="-fR6I9Zb2AYrxej_xYAv-70" value="k1&lt;br&gt;k2" style="edgeLabel;html=1;align=center;verticalAlign=middle;resizable=0;points=[];" vertex="1" connectable="0" parent="-fR6I9Zb2AYrxej_xYAv-67">
          <mxGeometry x="-0.7474" y="-1" relative="1" as="geometry">
            <mxPoint x="-21" y="-1" as="offset" />
          </mxGeometry>
        </mxCell>
        <mxCell id="-fR6I9Zb2AYrxej_xYAv-71" value="0..1" style="edgeLabel;html=1;align=center;verticalAlign=middle;resizable=0;points=[];" vertex="1" connectable="0" parent="-fR6I9Zb2AYrxej_xYAv-67">
          <mxGeometry x="-0.8312" y="2" relative="1" as="geometry">
            <mxPoint x="22" as="offset" />
          </mxGeometry>
        </mxCell>
        <mxCell id="-fR6I9Zb2AYrxej_xYAv-72" style="edgeStyle=orthogonalEdgeStyle;rounded=0;orthogonalLoop=1;jettySize=auto;html=1;endArrow=none;endFill=0;" edge="1" parent="WIyWlLk6GJQsqaUBKTNV-1" source="-fR6I9Zb2AYrxej_xYAv-4" target="-fR6I9Zb2AYrxej_xYAv-73">
          <mxGeometry relative="1" as="geometry">
            <mxPoint x="730" y="350" as="targetPoint" />
            <Array as="points">
              <mxPoint x="640" y="570" />
            </Array>
          </mxGeometry>
        </mxCell>
        <mxCell id="-fR6I9Zb2AYrxej_xYAv-76" value="0..1" style="edgeLabel;html=1;align=center;verticalAlign=middle;resizable=0;points=[];" vertex="1" connectable="0" parent="-fR6I9Zb2AYrxej_xYAv-72">
          <mxGeometry x="0.8553" relative="1" as="geometry">
            <mxPoint x="20" y="1" as="offset" />
          </mxGeometry>
        </mxCell>
        <mxCell id="-fR6I9Zb2AYrxej_xYAv-77" value="location" style="edgeLabel;html=1;align=center;verticalAlign=middle;resizable=0;points=[];" vertex="1" connectable="0" parent="-fR6I9Zb2AYrxej_xYAv-72">
          <mxGeometry x="0.7872" y="1" relative="1" as="geometry">
            <mxPoint x="-29" y="-5" as="offset" />
          </mxGeometry>
        </mxCell>
        <mxCell id="-fR6I9Zb2AYrxej_xYAv-80" value="pallet" style="edgeLabel;html=1;align=center;verticalAlign=middle;resizable=0;points=[];" vertex="1" connectable="0" parent="-fR6I9Zb2AYrxej_xYAv-72">
          <mxGeometry x="-0.9015" y="-1" relative="1" as="geometry">
            <mxPoint x="9" y="-23" as="offset" />
          </mxGeometry>
        </mxCell>
        <mxCell id="-fR6I9Zb2AYrxej_xYAv-81" value="0..1" style="edgeLabel;html=1;align=center;verticalAlign=middle;resizable=0;points=[];" vertex="1" connectable="0" parent="-fR6I9Zb2AYrxej_xYAv-72">
          <mxGeometry x="-0.6591" y="1" relative="1" as="geometry">
            <mxPoint x="-17" y="19" as="offset" />
          </mxGeometry>
        </mxCell>
        <mxCell id="-fR6I9Zb2AYrxej_xYAv-4" value="Pallet" style="swimlane;fontStyle=2;align=center;verticalAlign=top;childLayout=stackLayout;horizontal=1;startSize=26;horizontalStack=0;resizeParent=1;resizeLast=0;collapsible=1;marginBottom=0;rounded=0;shadow=0;strokeWidth=1;" vertex="1" parent="WIyWlLk6GJQsqaUBKTNV-1">
          <mxGeometry x="340" y="460" width="180" height="268" as="geometry">
            <mxRectangle x="230" y="140" width="160" height="26" as="alternateBounds" />
          </mxGeometry>
        </mxCell>
        <mxCell id="-fR6I9Zb2AYrxej_xYAv-16" value="+ location : Object" style="text;align=left;verticalAlign=top;spacingLeft=4;spacingRight=4;overflow=hidden;rotatable=0;points=[[0,0.5],[1,0.5]];portConstraint=eastwest;" vertex="1" parent="-fR6I9Zb2AYrxej_xYAv-4">
          <mxGeometry y="26" width="180" height="26" as="geometry" />
        </mxCell>
        <mxCell id="-fR6I9Zb2AYrxej_xYAv-5" value="+ slotA : Cup" style="text;align=left;verticalAlign=top;spacingLeft=4;spacingRight=4;overflow=hidden;rotatable=0;points=[[0,0.5],[1,0.5]];portConstraint=eastwest;" vertex="1" parent="-fR6I9Zb2AYrxej_xYAv-4">
          <mxGeometry y="52" width="180" height="26" as="geometry" />
        </mxCell>
        <mxCell id="-fR6I9Zb2AYrxej_xYAv-6" value="+ slotB : Cup" style="text;align=left;verticalAlign=top;spacingLeft=4;spacingRight=4;overflow=hidden;rotatable=0;points=[[0,0.5],[1,0.5]];portConstraint=eastwest;" vertex="1" parent="-fR6I9Zb2AYrxej_xYAv-4">
          <mxGeometry y="78" width="180" height="26" as="geometry" />
        </mxCell>
        <mxCell id="-fR6I9Zb2AYrxej_xYAv-112" value="" style="line;strokeWidth=1;fillColor=none;align=left;verticalAlign=middle;spacingTop=-1;spacingLeft=3;spacingRight=3;rotatable=0;labelPosition=right;points=[];portConstraint=eastwest;strokeColor=inherit;" vertex="1" parent="-fR6I9Zb2AYrxej_xYAv-4">
          <mxGeometry y="104" width="180" height="8" as="geometry" />
        </mxCell>
        <mxCell id="-fR6I9Zb2AYrxej_xYAv-114" value="+ Pallet()" style="text;align=left;verticalAlign=top;spacingLeft=4;spacingRight=4;overflow=hidden;rotatable=0;points=[[0,0.5],[1,0.5]];portConstraint=eastwest;" vertex="1" parent="-fR6I9Zb2AYrxej_xYAv-4">
          <mxGeometry y="112" width="180" height="26" as="geometry" />
        </mxCell>
        <mxCell id="-fR6I9Zb2AYrxej_xYAv-113" value="+ setLocation(Workbench)" style="text;align=left;verticalAlign=top;spacingLeft=4;spacingRight=4;overflow=hidden;rotatable=0;points=[[0,0.5],[1,0.5]];portConstraint=eastwest;" vertex="1" parent="-fR6I9Zb2AYrxej_xYAv-4">
          <mxGeometry y="138" width="180" height="26" as="geometry" />
        </mxCell>
        <mxCell id="-fR6I9Zb2AYrxej_xYAv-115" value="+ setLocation(StorageElement)" style="text;align=left;verticalAlign=top;spacingLeft=4;spacingRight=4;overflow=hidden;rotatable=0;points=[[0,0.5],[1,0.5]];portConstraint=eastwest;" vertex="1" parent="-fR6I9Zb2AYrxej_xYAv-4">
          <mxGeometry y="164" width="180" height="26" as="geometry" />
        </mxCell>
        <mxCell id="-fR6I9Zb2AYrxej_xYAv-118" value="+ getLocation()" style="text;align=left;verticalAlign=top;spacingLeft=4;spacingRight=4;overflow=hidden;rotatable=0;points=[[0,0.5],[1,0.5]];portConstraint=eastwest;" vertex="1" parent="-fR6I9Zb2AYrxej_xYAv-4">
          <mxGeometry y="190" width="180" height="26" as="geometry" />
        </mxCell>
        <mxCell id="-fR6I9Zb2AYrxej_xYAv-117" value="+ setCup(Cup, Slot)" style="text;align=left;verticalAlign=top;spacingLeft=4;spacingRight=4;overflow=hidden;rotatable=0;points=[[0,0.5],[1,0.5]];portConstraint=eastwest;" vertex="1" parent="-fR6I9Zb2AYrxej_xYAv-4">
          <mxGeometry y="216" width="180" height="26" as="geometry" />
        </mxCell>
        <mxCell id="-fR6I9Zb2AYrxej_xYAv-119" value="+ getCup(Slot)" style="text;align=left;verticalAlign=top;spacingLeft=4;spacingRight=4;overflow=hidden;rotatable=0;points=[[0,0.5],[1,0.5]];portConstraint=eastwest;" vertex="1" parent="-fR6I9Zb2AYrxej_xYAv-4">
          <mxGeometry y="242" width="180" height="26" as="geometry" />
        </mxCell>
        <mxCell id="-fR6I9Zb2AYrxej_xYAv-90" style="edgeStyle=orthogonalEdgeStyle;rounded=0;orthogonalLoop=1;jettySize=auto;html=1;endArrow=none;endFill=0;" edge="1" parent="WIyWlLk6GJQsqaUBKTNV-1" source="-fR6I9Zb2AYrxej_xYAv-47" target="-fR6I9Zb2AYrxej_xYAv-86">
          <mxGeometry relative="1" as="geometry">
            <Array as="points">
              <mxPoint x="160" y="83" />
            </Array>
          </mxGeometry>
        </mxCell>
        <mxCell id="-fR6I9Zb2AYrxej_xYAv-91" value="0..1" style="edgeLabel;html=1;align=center;verticalAlign=middle;resizable=0;points=[];" vertex="1" connectable="0" parent="-fR6I9Zb2AYrxej_xYAv-90">
          <mxGeometry x="-0.8002" y="-3" relative="1" as="geometry">
            <mxPoint x="17" y="7" as="offset" />
          </mxGeometry>
        </mxCell>
        <mxCell id="-fR6I9Zb2AYrxej_xYAv-92" value="invController" style="edgeLabel;html=1;align=center;verticalAlign=middle;resizable=0;points=[];" vertex="1" connectable="0" parent="-fR6I9Zb2AYrxej_xYAv-90">
          <mxGeometry x="-0.7166" y="1" relative="1" as="geometry">
            <mxPoint x="-39" y="19" as="offset" />
          </mxGeometry>
        </mxCell>
        <mxCell id="-fR6I9Zb2AYrxej_xYAv-93" value="0..1" style="edgeLabel;html=1;align=center;verticalAlign=middle;resizable=0;points=[];" vertex="1" connectable="0" parent="-fR6I9Zb2AYrxej_xYAv-90">
          <mxGeometry x="0.8075" y="1" relative="1" as="geometry">
            <mxPoint y="18" as="offset" />
          </mxGeometry>
        </mxCell>
        <mxCell id="-fR6I9Zb2AYrxej_xYAv-94" value="mobileRobot" style="edgeLabel;html=1;align=center;verticalAlign=middle;resizable=0;points=[];" vertex="1" connectable="0" parent="-fR6I9Zb2AYrxej_xYAv-90">
          <mxGeometry x="0.7695" y="-4" relative="1" as="geometry">
            <mxPoint x="-8" y="-27" as="offset" />
          </mxGeometry>
        </mxCell>
        <mxCell id="-fR6I9Zb2AYrxej_xYAv-47" value="MobileRobot" style="swimlane;fontStyle=2;align=center;verticalAlign=top;childLayout=stackLayout;horizontal=1;startSize=26;horizontalStack=0;resizeParent=1;resizeLast=0;collapsible=1;marginBottom=0;rounded=0;shadow=0;strokeWidth=1;" vertex="1" parent="WIyWlLk6GJQsqaUBKTNV-1">
          <mxGeometry x="80" y="200" width="160" height="112" as="geometry">
            <mxRectangle x="230" y="140" width="160" height="26" as="alternateBounds" />
          </mxGeometry>
        </mxCell>
        <mxCell id="-fR6I9Zb2AYrxej_xYAv-50" value="+ cup : Cup" style="text;align=left;verticalAlign=top;spacingLeft=4;spacingRight=4;overflow=hidden;rotatable=0;points=[[0,0.5],[1,0.5]];portConstraint=eastwest;" vertex="1" parent="-fR6I9Zb2AYrxej_xYAv-47">
          <mxGeometry y="26" width="160" height="26" as="geometry" />
        </mxCell>
        <mxCell id="-fR6I9Zb2AYrxej_xYAv-105" value="" style="line;strokeWidth=1;fillColor=none;align=left;verticalAlign=middle;spacingTop=-1;spacingLeft=3;spacingRight=3;rotatable=0;labelPosition=right;points=[];portConstraint=eastwest;strokeColor=inherit;" vertex="1" parent="-fR6I9Zb2AYrxej_xYAv-47">
          <mxGeometry y="52" width="160" height="8" as="geometry" />
        </mxCell>
        <mxCell id="-fR6I9Zb2AYrxej_xYAv-134" value="+ setCup()" style="text;align=left;verticalAlign=top;spacingLeft=4;spacingRight=4;overflow=hidden;rotatable=0;points=[[0,0.5],[1,0.5]];portConstraint=eastwest;" vertex="1" parent="-fR6I9Zb2AYrxej_xYAv-47">
          <mxGeometry y="60" width="160" height="26" as="geometry" />
        </mxCell>
        <mxCell id="-fR6I9Zb2AYrxej_xYAv-106" value="+ getCup()" style="text;align=left;verticalAlign=top;spacingLeft=4;spacingRight=4;overflow=hidden;rotatable=0;points=[[0,0.5],[1,0.5]];portConstraint=eastwest;" vertex="1" parent="-fR6I9Zb2AYrxej_xYAv-47">
          <mxGeometry y="86" width="160" height="26" as="geometry" />
        </mxCell>
        <mxCell id="-fR6I9Zb2AYrxej_xYAv-55" style="edgeStyle=orthogonalEdgeStyle;rounded=0;orthogonalLoop=1;jettySize=auto;html=1;endArrow=none;endFill=0;" edge="1" parent="WIyWlLk6GJQsqaUBKTNV-1" source="-fR6I9Zb2AYrxej_xYAv-51" target="-fR6I9Zb2AYrxej_xYAv-47">
          <mxGeometry relative="1" as="geometry">
            <Array as="points">
              <mxPoint x="160" y="290" />
              <mxPoint x="160" y="290" />
            </Array>
          </mxGeometry>
        </mxCell>
        <mxCell id="-fR6I9Zb2AYrxej_xYAv-56" value="location" style="edgeLabel;html=1;align=center;verticalAlign=middle;resizable=0;points=[];" vertex="1" connectable="0" parent="-fR6I9Zb2AYrxej_xYAv-55">
          <mxGeometry x="0.857" y="-1" relative="1" as="geometry">
            <mxPoint x="-31" as="offset" />
          </mxGeometry>
        </mxCell>
        <mxCell id="-fR6I9Zb2AYrxej_xYAv-57" value="cup" style="edgeLabel;html=1;align=center;verticalAlign=middle;resizable=0;points=[];" vertex="1" connectable="0" parent="-fR6I9Zb2AYrxej_xYAv-55">
          <mxGeometry x="-0.8707" relative="1" as="geometry">
            <mxPoint x="-20" y="1" as="offset" />
          </mxGeometry>
        </mxCell>
        <mxCell id="-fR6I9Zb2AYrxej_xYAv-58" value="0..1" style="edgeLabel;html=1;align=center;verticalAlign=middle;resizable=0;points=[];" vertex="1" connectable="0" parent="-fR6I9Zb2AYrxej_xYAv-55">
          <mxGeometry x="-0.6617" y="-1" relative="1" as="geometry">
            <mxPoint x="19" y="14" as="offset" />
          </mxGeometry>
        </mxCell>
        <mxCell id="-fR6I9Zb2AYrxej_xYAv-59" value="0..1" style="edgeLabel;html=1;align=center;verticalAlign=middle;resizable=0;points=[];" vertex="1" connectable="0" parent="-fR6I9Zb2AYrxej_xYAv-55">
          <mxGeometry x="0.6866" relative="1" as="geometry">
            <mxPoint x="18" y="-13" as="offset" />
          </mxGeometry>
        </mxCell>
        <mxCell id="-fR6I9Zb2AYrxej_xYAv-62" style="edgeStyle=orthogonalEdgeStyle;rounded=0;orthogonalLoop=1;jettySize=auto;html=1;startArrow=none;startFill=0;endArrow=none;endFill=0;" edge="1" parent="WIyWlLk6GJQsqaUBKTNV-1" source="-fR6I9Zb2AYrxej_xYAv-51" target="-fR6I9Zb2AYrxej_xYAv-4">
          <mxGeometry relative="1" as="geometry">
            <Array as="points">
              <mxPoint x="310" y="568" />
              <mxPoint x="310" y="568" />
            </Array>
          </mxGeometry>
        </mxCell>
        <mxCell id="-fR6I9Zb2AYrxej_xYAv-63" value="0..1" style="edgeLabel;html=1;align=center;verticalAlign=middle;resizable=0;points=[];" vertex="1" connectable="0" parent="-fR6I9Zb2AYrxej_xYAv-62">
          <mxGeometry x="-0.7788" y="1" relative="1" as="geometry">
            <mxPoint x="5" y="14" as="offset" />
          </mxGeometry>
        </mxCell>
        <mxCell id="-fR6I9Zb2AYrxej_xYAv-64" value="slotA&lt;br&gt;slotB" style="edgeLabel;html=1;align=center;verticalAlign=middle;resizable=0;points=[];" vertex="1" connectable="0" parent="-fR6I9Zb2AYrxej_xYAv-62">
          <mxGeometry x="-0.6727" y="-1" relative="1" as="geometry">
            <mxPoint x="-3" y="-23" as="offset" />
          </mxGeometry>
        </mxCell>
        <mxCell id="-fR6I9Zb2AYrxej_xYAv-65" value="0..1" style="edgeLabel;html=1;align=center;verticalAlign=middle;resizable=0;points=[];" vertex="1" connectable="0" parent="-fR6I9Zb2AYrxej_xYAv-62">
          <mxGeometry x="0.6824" y="1" relative="1" as="geometry">
            <mxPoint y="19" as="offset" />
          </mxGeometry>
        </mxCell>
        <mxCell id="-fR6I9Zb2AYrxej_xYAv-66" value="location" style="edgeLabel;html=1;align=center;verticalAlign=middle;resizable=0;points=[];" vertex="1" connectable="0" parent="-fR6I9Zb2AYrxej_xYAv-62">
          <mxGeometry x="0.8212" relative="1" as="geometry">
            <mxPoint x="-17" y="-22" as="offset" />
          </mxGeometry>
        </mxCell>
        <mxCell id="-fR6I9Zb2AYrxej_xYAv-51" value="Cup" style="swimlane;fontStyle=2;align=center;verticalAlign=top;childLayout=stackLayout;horizontal=1;startSize=26;horizontalStack=0;resizeParent=1;resizeLast=0;collapsible=1;marginBottom=0;rounded=0;shadow=0;strokeWidth=1;" vertex="1" parent="WIyWlLk6GJQsqaUBKTNV-1">
          <mxGeometry x="70" y="460" width="160" height="216" as="geometry">
            <mxRectangle x="230" y="140" width="160" height="26" as="alternateBounds" />
          </mxGeometry>
        </mxCell>
        <mxCell id="-fR6I9Zb2AYrxej_xYAv-52" value="+ location: Object" style="text;align=left;verticalAlign=top;spacingLeft=4;spacingRight=4;overflow=hidden;rotatable=0;points=[[0,0.5],[1,0.5]];portConstraint=eastwest;" vertex="1" parent="-fR6I9Zb2AYrxej_xYAv-51">
          <mxGeometry y="26" width="160" height="26" as="geometry" />
        </mxCell>
        <mxCell id="-fR6I9Zb2AYrxej_xYAv-53" value="+ id : Int" style="text;align=left;verticalAlign=top;spacingLeft=4;spacingRight=4;overflow=hidden;rotatable=0;points=[[0,0.5],[1,0.5]];portConstraint=eastwest;" vertex="1" parent="-fR6I9Zb2AYrxej_xYAv-51">
          <mxGeometry y="52" width="160" height="26" as="geometry" />
        </mxCell>
        <mxCell id="-fR6I9Zb2AYrxej_xYAv-54" value="+ product : Cup" style="text;align=left;verticalAlign=top;spacingLeft=4;spacingRight=4;overflow=hidden;rotatable=0;points=[[0,0.5],[1,0.5]];portConstraint=eastwest;" vertex="1" parent="-fR6I9Zb2AYrxej_xYAv-51">
          <mxGeometry y="78" width="160" height="26" as="geometry" />
        </mxCell>
        <mxCell id="-fR6I9Zb2AYrxej_xYAv-107" value="" style="line;strokeWidth=1;fillColor=none;align=left;verticalAlign=middle;spacingTop=-1;spacingLeft=3;spacingRight=3;rotatable=0;labelPosition=right;points=[];portConstraint=eastwest;strokeColor=inherit;" vertex="1" parent="-fR6I9Zb2AYrxej_xYAv-51">
          <mxGeometry y="104" width="160" height="8" as="geometry" />
        </mxCell>
        <mxCell id="-fR6I9Zb2AYrxej_xYAv-111" value="+ Cup(id, product)" style="text;align=left;verticalAlign=top;spacingLeft=4;spacingRight=4;overflow=hidden;rotatable=0;points=[[0,0.5],[1,0.5]];portConstraint=eastwest;" vertex="1" parent="-fR6I9Zb2AYrxej_xYAv-51">
          <mxGeometry y="112" width="160" height="26" as="geometry" />
        </mxCell>
        <mxCell id="-fR6I9Zb2AYrxej_xYAv-108" value="+ setLocation(Pallet, slot)" style="text;align=left;verticalAlign=top;spacingLeft=4;spacingRight=4;overflow=hidden;rotatable=0;points=[[0,0.5],[1,0.5]];portConstraint=eastwest;" vertex="1" parent="-fR6I9Zb2AYrxej_xYAv-51">
          <mxGeometry y="138" width="160" height="26" as="geometry" />
        </mxCell>
        <mxCell id="-fR6I9Zb2AYrxej_xYAv-110" value="+ setLocation(MobileRobot)" style="text;align=left;verticalAlign=top;spacingLeft=4;spacingRight=4;overflow=hidden;rotatable=0;points=[[0,0.5],[1,0.5]];portConstraint=eastwest;" vertex="1" parent="-fR6I9Zb2AYrxej_xYAv-51">
          <mxGeometry y="164" width="160" height="26" as="geometry" />
        </mxCell>
        <mxCell id="-fR6I9Zb2AYrxej_xYAv-109" value="+ getLocation()" style="text;align=left;verticalAlign=top;spacingLeft=4;spacingRight=4;overflow=hidden;rotatable=0;points=[[0,0.5],[1,0.5]];portConstraint=eastwest;" vertex="1" parent="-fR6I9Zb2AYrxej_xYAv-51">
          <mxGeometry y="190" width="160" height="26" as="geometry" />
        </mxCell>
        <mxCell id="-fR6I9Zb2AYrxej_xYAv-75" style="edgeStyle=orthogonalEdgeStyle;rounded=0;orthogonalLoop=1;jettySize=auto;html=1;endArrow=none;endFill=0;" edge="1" parent="WIyWlLk6GJQsqaUBKTNV-1" source="-fR6I9Zb2AYrxej_xYAv-73" target="zkfFHV4jXpPFQw0GAbJ--6">
          <mxGeometry relative="1" as="geometry" />
        </mxCell>
        <mxCell id="-fR6I9Zb2AYrxej_xYAv-78" value="pallet" style="edgeLabel;html=1;align=center;verticalAlign=middle;resizable=0;points=[];" vertex="1" connectable="0" parent="-fR6I9Zb2AYrxej_xYAv-75">
          <mxGeometry x="0.7433" y="1" relative="1" as="geometry">
            <mxPoint x="-32" y="3" as="offset" />
          </mxGeometry>
        </mxCell>
        <mxCell id="-fR6I9Zb2AYrxej_xYAv-79" value="0..1" style="edgeLabel;html=1;align=center;verticalAlign=middle;resizable=0;points=[];" vertex="1" connectable="0" parent="-fR6I9Zb2AYrxej_xYAv-75">
          <mxGeometry x="0.3011" y="-3" relative="1" as="geometry">
            <mxPoint x="17" y="-7" as="offset" />
          </mxGeometry>
        </mxCell>
        <mxCell id="-fR6I9Zb2AYrxej_xYAv-82" value="0..36" style="edgeLabel;html=1;align=center;verticalAlign=middle;resizable=0;points=[];" vertex="1" connectable="0" parent="-fR6I9Zb2AYrxej_xYAv-75">
          <mxGeometry x="-0.7144" y="1" relative="1" as="geometry">
            <mxPoint x="21" as="offset" />
          </mxGeometry>
        </mxCell>
        <mxCell id="-fR6I9Zb2AYrxej_xYAv-83" value="pallets" style="edgeLabel;html=1;align=center;verticalAlign=middle;resizable=0;points=[];" vertex="1" connectable="0" parent="-fR6I9Zb2AYrxej_xYAv-75">
          <mxGeometry x="-0.6634" relative="1" as="geometry">
            <mxPoint x="-30" as="offset" />
          </mxGeometry>
        </mxCell>
        <mxCell id="-fR6I9Zb2AYrxej_xYAv-73" value="StorageElement" style="swimlane;fontStyle=2;align=center;verticalAlign=top;childLayout=stackLayout;horizontal=1;startSize=26;horizontalStack=0;resizeParent=1;resizeLast=0;collapsible=1;marginBottom=0;rounded=0;shadow=0;strokeWidth=1;" vertex="1" parent="WIyWlLk6GJQsqaUBKTNV-1">
          <mxGeometry x="560" y="330" width="210" height="190" as="geometry">
            <mxRectangle x="130" y="380" width="160" height="26" as="alternateBounds" />
          </mxGeometry>
        </mxCell>
        <mxCell id="-fR6I9Zb2AYrxej_xYAv-74" value="+ pallet : Pallet" style="text;align=left;verticalAlign=top;spacingLeft=4;spacingRight=4;overflow=hidden;rotatable=0;points=[[0,0.5],[1,0.5]];portConstraint=eastwest;" vertex="1" parent="-fR6I9Zb2AYrxej_xYAv-73">
          <mxGeometry y="26" width="210" height="26" as="geometry" />
        </mxCell>
        <mxCell id="-fR6I9Zb2AYrxej_xYAv-84" value="+ row : int" style="text;align=left;verticalAlign=top;spacingLeft=4;spacingRight=4;overflow=hidden;rotatable=0;points=[[0,0.5],[1,0.5]];portConstraint=eastwest;" vertex="1" parent="-fR6I9Zb2AYrxej_xYAv-73">
          <mxGeometry y="52" width="210" height="26" as="geometry" />
        </mxCell>
        <mxCell id="-fR6I9Zb2AYrxej_xYAv-85" value="+ col : int" style="text;align=left;verticalAlign=top;spacingLeft=4;spacingRight=4;overflow=hidden;rotatable=0;points=[[0,0.5],[1,0.5]];portConstraint=eastwest;" vertex="1" parent="-fR6I9Zb2AYrxej_xYAv-73">
          <mxGeometry y="78" width="210" height="26" as="geometry" />
        </mxCell>
        <mxCell id="-fR6I9Zb2AYrxej_xYAv-116" value="" style="line;strokeWidth=1;fillColor=none;align=left;verticalAlign=middle;spacingTop=-1;spacingLeft=3;spacingRight=3;rotatable=0;labelPosition=right;points=[];portConstraint=eastwest;strokeColor=inherit;" vertex="1" parent="-fR6I9Zb2AYrxej_xYAv-73">
          <mxGeometry y="104" width="210" height="8" as="geometry" />
        </mxCell>
        <mxCell id="-fR6I9Zb2AYrxej_xYAv-120" value="+ StorageElement(row, col, Inventory)" style="text;align=left;verticalAlign=top;spacingLeft=4;spacingRight=4;overflow=hidden;rotatable=0;points=[[0,0.5],[1,0.5]];portConstraint=eastwest;" vertex="1" parent="-fR6I9Zb2AYrxej_xYAv-73">
          <mxGeometry y="112" width="210" height="26" as="geometry" />
        </mxCell>
        <mxCell id="-fR6I9Zb2AYrxej_xYAv-121" value="+ setPallet(Workbench)" style="text;align=left;verticalAlign=top;spacingLeft=4;spacingRight=4;overflow=hidden;rotatable=0;points=[[0,0.5],[1,0.5]];portConstraint=eastwest;" vertex="1" parent="-fR6I9Zb2AYrxej_xYAv-73">
          <mxGeometry y="138" width="210" height="26" as="geometry" />
        </mxCell>
        <mxCell id="-fR6I9Zb2AYrxej_xYAv-122" value="+ getPallet(Workbench)" style="text;align=left;verticalAlign=top;spacingLeft=4;spacingRight=4;overflow=hidden;rotatable=0;points=[[0,0.5],[1,0.5]];portConstraint=eastwest;" vertex="1" parent="-fR6I9Zb2AYrxej_xYAv-73">
          <mxGeometry y="164" width="210" height="26" as="geometry" />
        </mxCell>
        <mxCell id="-fR6I9Zb2AYrxej_xYAv-100" style="edgeStyle=orthogonalEdgeStyle;rounded=0;orthogonalLoop=1;jettySize=auto;html=1;endArrow=none;endFill=0;" edge="1" parent="WIyWlLk6GJQsqaUBKTNV-1" source="-fR6I9Zb2AYrxej_xYAv-86" target="zkfFHV4jXpPFQw0GAbJ--6">
          <mxGeometry relative="1" as="geometry">
            <Array as="points">
              <mxPoint x="665" y="83" />
            </Array>
          </mxGeometry>
        </mxCell>
        <mxCell id="-fR6I9Zb2AYrxej_xYAv-101" value="inventory" style="edgeLabel;html=1;align=center;verticalAlign=middle;resizable=0;points=[];" vertex="1" connectable="0" parent="-fR6I9Zb2AYrxej_xYAv-100">
          <mxGeometry x="-0.7845" y="2" relative="1" as="geometry">
            <mxPoint x="10" y="-15" as="offset" />
          </mxGeometry>
        </mxCell>
        <mxCell id="-fR6I9Zb2AYrxej_xYAv-102" value="0..1" style="edgeLabel;html=1;align=center;verticalAlign=middle;resizable=0;points=[];" vertex="1" connectable="0" parent="-fR6I9Zb2AYrxej_xYAv-100">
          <mxGeometry x="-0.7801" relative="1" as="geometry">
            <mxPoint x="-1" y="17" as="offset" />
          </mxGeometry>
        </mxCell>
        <mxCell id="-fR6I9Zb2AYrxej_xYAv-103" value="0..1" style="edgeLabel;html=1;align=center;verticalAlign=middle;resizable=0;points=[];" vertex="1" connectable="0" parent="-fR6I9Zb2AYrxej_xYAv-100">
          <mxGeometry x="0.8973" y="-1" relative="1" as="geometry">
            <mxPoint x="21" y="-6" as="offset" />
          </mxGeometry>
        </mxCell>
        <mxCell id="-fR6I9Zb2AYrxej_xYAv-104" value="invController" style="edgeLabel;html=1;align=center;verticalAlign=middle;resizable=0;points=[];" vertex="1" connectable="0" parent="-fR6I9Zb2AYrxej_xYAv-100">
          <mxGeometry x="0.7792" y="1" relative="1" as="geometry">
            <mxPoint x="-41" y="5" as="offset" />
          </mxGeometry>
        </mxCell>
        <mxCell id="-fR6I9Zb2AYrxej_xYAv-86" value="InventoryController" style="swimlane;fontStyle=2;align=center;verticalAlign=top;childLayout=stackLayout;horizontal=1;startSize=26;horizontalStack=0;resizeParent=1;resizeLast=0;collapsible=1;marginBottom=0;rounded=0;shadow=0;strokeWidth=1;" vertex="1" parent="WIyWlLk6GJQsqaUBKTNV-1">
          <mxGeometry x="350" y="40" width="160" height="86" as="geometry">
            <mxRectangle x="550" y="140" width="160" height="26" as="alternateBounds" />
          </mxGeometry>
        </mxCell>
        <mxCell id="-fR6I9Zb2AYrxej_xYAv-87" value="+ app : Application" style="text;align=left;verticalAlign=top;spacingLeft=4;spacingRight=4;overflow=hidden;rotatable=0;points=[[0,0.5],[1,0.5]];portConstraint=eastwest;" vertex="1" parent="-fR6I9Zb2AYrxej_xYAv-86">
          <mxGeometry y="26" width="160" height="26" as="geometry" />
        </mxCell>
        <mxCell id="-fR6I9Zb2AYrxej_xYAv-89" value="" style="line;strokeWidth=1;fillColor=none;align=left;verticalAlign=middle;spacingTop=-1;spacingLeft=3;spacingRight=3;rotatable=0;labelPosition=right;points=[];portConstraint=eastwest;strokeColor=inherit;" vertex="1" parent="-fR6I9Zb2AYrxej_xYAv-86">
          <mxGeometry y="52" width="160" height="8" as="geometry" />
        </mxCell>
      </root>
    </mxGraphModel>
  </diagram>
</mxfile>
